# xmcd
#
# Track frame offsets:
# 150
# 19842
# 54504
# 77071
# 98287
# 116819
# 148122
# 183410
# 196991
# 215910
# 235664
# 259680
# 300697
# 324535
# 355074
#
# Disc length: 4738 seconds
#
# Revision: 0
# Processed by: cddbd v1.5.1PL0 Copyright (c) Steve Scherf et al.
# Submitted via: Audion 3.0.2 (http://www.panic.com/audion/)
#
DISCID=d312800f
DTITLE=Gilles, Daniel, David - Papes Georges 21/03/04
DYEAR=1900
DGENRE=
TTITLE0=Same old blues-JJ
TTITLE1=Call the Dr
TTITLE2=Who's been talking
TTITLE3=Hank to hendrix
TTITLE4=Same old blues
TTITLE5=Thrill is gone
TTITLE6=Fly
TTITLE7=Oklahoma
TTITLE8=Hold on
TTITLE9=When she wants
TTITLE10=Clyde
TTITLE11=Bound for a change
TTITLE12=Strange brew
TTITLE13=The city
TTITLE14=squatteux
EXTD=
EXTT0=
EXTT1=
EXTT2=
EXTT3=
EXTT4=
EXTT5=
EXTT6=
EXTT7=
EXTT8=
EXTT9=
EXTT10=
EXTT11=
EXTT12=
EXTT13=
EXTT14=
PLAYORDER=
